<svg xmlns="http://www.w3.org/2000/svg" version="1.1" xmlns:xlink="http://www.w3.org/1999/xlink" xmlns:svgjs="http://svgjs.dev/svgjs" width="1000" height="1000" viewBox="0 0 1000 1000"><rect width="1000" height="1000" fill="#ffffff"></rect><g transform="matrix(0.7,0,0,0.7,149.57576237693024,437.7370911383547)"><svg viewBox="0 0 396 71" data-background-color="#ffffff" preserveAspectRatio="xMidYMid meet" height="179" width="1000" xmlns="http://www.w3.org/2000/svg" xmlns:xlink="http://www.w3.org/1999/xlink"><defs></defs><g id="tight-bounds" transform="matrix(1,0,0,1,0.2399973178592063,-0.2193402610859323)"><svg viewBox="0 0 395.52 71.4386816084377" height="71.4386816084377" width="395.52"><g><svg viewBox="0 0 395.52 71.4386816084377" height="71.4386816084377" width="395.52"><g><svg viewBox="0 0 395.52 71.4386816084377" height="71.4386816084377" width="395.52"><g><svg viewBox="0 0 395.52 71.4386816084377" height="71.4386816084377" width="395.52"><g><svg viewBox="0 0 395.52 71.4386816084377" height="71.4386816084377" width="395.52"><g transform="matrix(1,0,0,1,0,0)"><svg width="395.52" viewBox="2.9800000190734863 -37.88999938964844 222.1999969482422 40.13999938964844" height="71.4386816084377" data-palette-color="#6b7280"><path d="M30.52-36.23L31.05-29.74Q26.27-29.49 21.56-29.22 16.85-28.96 12.06-28.56L12.06-28.56 11.96-24.71 24.56-25.44Q24.8-23.78 24.93-22.17 25.05-20.56 25.05-18.9L25.05-18.9Q25.05-18.21 25.02-17.48 25-16.75 25-16.06L25-16.06 13.28-13.96 14.01-7.91Q17.72-8.15 21.41-8.62 25.1-9.08 28.86-9.42L28.86-9.42Q29.2-6.98 29.54-4.52 29.88-2.05 30.52 0.29L30.52 0.29Q23.58 0.24 16.75 0.32 9.91 0.39 2.98 0.39L2.98 0.39Q3.13-5.32 3.32-10.99 3.52-16.65 3.52-22.41L3.52-22.41 3.52-23.34Q3.52-26.66 3.42-29.96 3.32-33.25 3.22-36.62L3.22-36.62Q7.08-36.57 10.91-36.6 14.75-36.62 18.65-36.62L18.65-36.62Q21.63-36.62 24.58-36.5 27.54-36.38 30.52-36.23L30.52-36.23ZM73.58-15.72L73.58-15.72Q73.58-11.43 73.56-7.25 73.53-3.08 73.48 1.22L73.48 1.22Q70.46 1.07 67.48 1.07L67.48 1.07Q66.01 1.07 64.52 1.22 63.03 1.37 61.57 1.61L61.57 1.61Q59.71-2.44 57.86-6.42 56-10.4 54.15-14.45L54.15-14.45Q52.78-17.43 51.56-20.41 50.34-23.39 49.12-26.42L49.12-26.42Q48.68-19.82 48.22-13.31 47.75-6.79 47.46-0.2L47.46-0.2 36.91-0.49Q36.67-9.86 36.47-19.14 36.28-28.42 35.79-37.79L35.79-37.79 54.88-37.89Q55.86-35.45 56.71-32.98 57.57-30.52 58.35-27.98L58.35-27.98Q59.47-24.12 60.89-20.34 62.3-16.55 63.72-12.74L63.72-12.74Q63.67-18.85 63.5-24.9 63.33-30.96 63.23-37.11L63.23-37.11 73.09-35.94Q73.29-30.86 73.44-25.83 73.58-20.8 73.58-15.72ZM100.04-35.84L100.04-35.84Q99.8-32.86 99.85-29.91 99.9-26.95 99.8-24.02L99.8-24.02 94.38-24.22Q94.33-22.51 94.31-20.85 94.28-19.19 94.28-17.48L94.28-17.48Q94.28-15.43 94.31-13.45 94.33-11.47 94.38-9.42L94.38-9.42 99.36-9.33Q99.26-7.91 99.26-6.45 99.26-4.98 99.26-3.52L99.26-3.52Q99.26-2.29 99.34-1.07 99.41 0.15 99.65 1.32L99.65 1.32 82.12 1.61Q82.12-0.78 82.08-3.1 82.03-5.42 81.88-7.81L81.88-7.81 85.05-7.86Q84.81-12.45 84.49-16.94 84.17-21.44 83.83-25.98L83.83-25.98 79.19-26.56Q79.1-28.61 79.02-30.64 78.95-32.67 78.85-34.72L78.85-34.72Q84.17-34.91 89.42-35.18 94.67-35.45 100.04-35.84ZM137.88 0.78L137.88 0.78Q131.97 0.68 125.8 0.49 119.62 0.29 113.71-0.39L113.71-0.39Q113.03-0.49 112.18-0.56 111.32-0.63 110.64-0.88L110.64-0.88Q109.22-1.42 108.42-2.08 107.61-2.73 107.17-3.59 106.73-4.44 106.54-5.49 106.34-6.54 106.19-7.86L106.19-7.86Q105.75-11.28 105.51-14.72 105.27-18.16 105.27-21.63L105.27-21.63Q105.27-22.27 105.29-23.17 105.31-24.07 105.39-25.05 105.46-26.03 105.61-26.9 105.75-27.78 106-28.37L106-28.37Q107.17-30.91 109.44-32.45 111.71-33.98 114.45-34.84 117.18-35.69 120.09-35.96 122.99-36.23 125.43-36.23L125.43-36.23Q130.66-36.23 135.88-35.21L135.88-35.21 136.27-24.76Q131.29-26.32 125.97-26.32L125.97-26.32Q124.99-26.32 123.38-26.22 121.77-26.12 120.09-25.85 118.4-25.59 116.94-25.07 115.47-24.56 114.89-23.68L114.89-23.68Q114.59-23.24 114.37-22.46 114.15-21.68 114.03-20.83 113.91-19.97 113.86-19.14 113.81-18.31 113.81-17.77L113.81-17.77Q113.81-16.65 113.98-15.11 114.15-13.57 114.4-11.96 114.64-10.35 114.98-8.89 115.32-7.42 115.72-6.49L115.72-6.49 124.36-6.49 123.92-15.92Q127.29-15.67 130.68-15.7 134.07-15.72 137.44-15.72L137.44-15.72Q137.79-11.57 137.83-7.47 137.88-3.37 137.88 0.78ZM186.12-1.37L186.12 0.83Q185.2 0.78 184.32 0.68L184.32 0.68Q183.58 0.59 182.88 0.54 182.17 0.49 181.83 0.49L181.83 0.49Q179.92 0.49 178.02 0.56 176.11 0.63 174.26 0.83L174.26 0.83Q174.31-1.22 174.33-3.2 174.36-5.18 174.36-7.23L174.36-7.23Q174.36-10.89 174.23-14.5 174.11-18.12 174.01-21.73L174.01-21.73 163.76 1.46Q161.51-4.64 158.95-10.52 156.39-16.41 153.6-22.27L153.6-22.27 154.38 1.86Q153.85 1.86 153.29 1.83 152.72 1.81 152.14 1.81L152.14 1.81Q150.28 1.81 148.5 1.95 146.72 2.1 144.91 2.25L144.91 2.25Q145.16-2.29 145.4-6.79 145.64-11.28 145.64-15.82L145.64-15.82Q145.64-21.14 145.57-26.42 145.5-31.69 145.45-37.01L145.45-37.01Q148.96-37.01 152.31-37.21 155.65-37.4 159.17-37.74L159.17-37.74Q160.34-33.84 161.59-30 162.83-26.17 164.25-22.36L164.25-22.36Q165.76-25.98 167.69-29.44 169.62-32.91 171.62-36.33L171.62-36.33Q174.94-36.43 178.19-36.52 181.44-36.62 184.76-36.67L184.76-36.67Q184.9-32.28 185.12-27.98 185.34-23.68 185.54-19.29L185.54-19.29Q185.68-15.82 185.81-12.35 185.93-8.89 186.03-5.47L186.03-5.47 186.12-1.37ZM225.18-0.15L225.18-0.15 217.76 0.98Q216.98-1.51 216.2-3.98 215.42-6.45 214.68-8.94L214.68-8.94 202.67-8.5 201.16-2 193.64-2Q194.32-10.3 195.06-18.51 195.79-26.71 196.47-34.96L196.47-34.96Q199.99-35.55 203.48-35.94 206.97-36.33 210.53-36.33L210.53-36.33Q214.88-36.33 219.23-36.18L219.23-36.18Q220.01-31.1 220.76-26.05 221.52-21 222.35-15.92L222.35-15.92Q222.94-11.91 223.64-8.01 224.35-4.1 225.18-0.15ZM203.6-15.33L212.98-15.58Q212.93-16.02 212.73-17.21 212.54-18.41 212.29-19.75 212.05-21.09 211.73-22.19 211.41-23.29 211.12-23.49L211.12-23.49Q211.02-23.54 210.66-23.58 210.29-23.63 209.88-23.68 209.46-23.73 209.07-23.73 208.68-23.73 208.53-23.73L208.53-23.73Q208.29-23.73 207.87-23.73 207.46-23.73 206.99-23.71 206.53-23.68 206.12-23.58 205.7-23.49 205.55-23.34L205.55-23.34Q205.46-23.29 205.31-22.71 205.16-22.12 204.94-21.26 204.72-20.41 204.5-19.43 204.28-18.46 204.09-17.58 203.89-16.7 203.77-16.06 203.65-15.43 203.6-15.33L203.6-15.33Z" opacity="1" transform="matrix(1,0,0,1,0,0)" fill="#6b7280" class="undefined-text-0" data-fill-palette-color="primary" id="text-0"></path></svg></g></svg></g></svg></g></svg></g></svg></g></svg><rect width="395.52" height="71.4386816084377" fill="none" stroke="none" visibility="hidden"></rect></g></svg></g></svg>